<?xml version="1.0" standalone="no"?>
<!DOCTYPE svg PUBLIC "-//W3C//DTD SVG 20010904//EN"
 "http://www.w3.org/TR/2001/REC-SVG-20010904/DTD/svg10.dtd">
<svg version="1.0" xmlns="http://www.w3.org/2000/svg"
 width="300.000000pt" height="305.000000pt" viewBox="0 0 300.000000 305.000000"
 preserveAspectRatio="xMidYMid meet">
<metadata>
Created by potrace 1.10, written by Peter Selinger 2001-2011
</metadata>
<g transform="translate(0.000000,305.000000) scale(0.100000,-0.100000)"
fill="#000000" stroke="none">
<path d="M1786 2870 c-24 -22 -60 -71 -79 -108 -41 -78 -93 -236 -103 -311
l-7 -53 -48 99 c-79 165 -203 265 -372 299 -96 20 -196 8 -234 -28 -50 -46
-20 -152 110 -383 34 -60 77 -128 97 -149 43 -49 198 -165 313 -236 84 -51 87
-54 71 -72 -10 -11 -19 -41 -22 -74 -4 -46 -7 -54 -21 -49 -9 4 -68 9 -131 12
-206 10 -375 -35 -512 -137 -182 -134 -300 -399 -315 -702 -6 -118 -8 -128
-25 -128 -11 0 -33 -14 -50 -30 -29 -29 -30 -33 -26 -104 3 -59 10 -86 41
-149 45 -91 71 -111 143 -114 46 -1 57 -6 93 -41 l41 -39 232 -5 c302 -5 326
-3 334 28 l6 24 18 -23 c18 -22 20 -22 277 -20 142 2 280 6 308 11 48 7 50 9
56 45 11 68 -36 126 -102 127 -26 0 -27 2 -32 82 l-5 83 36 34 c168 154 223
227 275 364 26 72 30 95 31 187 1 58 -2 120 -6 138 -7 32 -7 32 30 32 83 0
217 94 255 179 25 56 17 112 -29 208 -24 51 -48 83 -80 109 -25 21 -63 64 -85
95 -44 65 -110 113 -190 137 l-55 16 18 64 c66 238 0 538 -134 608 -45 24 -75
17 -122 -26z m114 -46 c64 -55 102 -180 101 -338 0 -104 -24 -224 -56 -285
l-16 -31 31 0 c41 0 142 -35 190 -65 21 -13 55 -49 75 -80 21 -31 56 -71 79
-90 53 -43 98 -130 104 -200 4 -51 3 -55 -38 -98 -55 -61 -129 -97 -196 -97
-74 0 -78 -9 -58 -115 15 -73 16 -98 6 -162 -14 -85 -44 -168 -93 -249 -31
-51 -65 -88 -205 -220 -44 -41 -44 -42 -44 -110 1 -88 13 -152 33 -172 9 -8
36 -18 59 -21 29 -4 44 -11 46 -23 4 -21 -85 -29 -347 -31 -141 -2 -185 1
-189 11 -6 19 -57 42 -95 42 -38 0 -63 -21 -53 -45 5 -13 -23 -15 -220 -15
-252 0 -260 2 -298 73 l-19 34 -41 -15 c-63 -22 -90 -6 -127 72 -50 107 -50
202 1 194 10 -2 27 6 39 16 18 16 21 31 21 90 0 244 76 491 197 641 133 164
363 244 622 217 58 -7 119 -8 136 -4 28 8 29 10 26 59 -3 54 7 83 42 120 l20
22 -34 32 c-19 17 -95 71 -169 119 -203 133 -241 171 -332 336 -42 77 -87 170
-100 207 -23 68 -23 68 -3 84 15 11 41 14 110 11 115 -5 198 -41 286 -124 51
-50 70 -78 134 -209 61 -125 82 -160 121 -194 26 -23 52 -40 58 -38 5 2 14 16
19 32 8 22 6 30 -7 37 -29 16 -56 84 -56 141 0 61 46 226 89 322 27 58 93 145
111 145 5 0 23 -12 40 -26z m-301 -473 c6 -19 9 -36 6 -39 -4 -5 -16 21 -30
68 -11 38 10 12 24 -29z"/>
</g>
</svg>
