<?xml version="1.0" standalone="no"?>
<!DOCTYPE svg PUBLIC "-//W3C//DTD SVG 20010904//EN"
 "http://www.w3.org/TR/2001/REC-SVG-20010904/DTD/svg10.dtd">
<svg version="1.0" xmlns="http://www.w3.org/2000/svg"
 width="300.000000pt" height="300.000000pt" viewBox="0 0 300.000000 300.000000"
 preserveAspectRatio="xMidYMid meet">
<metadata>
Created by potrace 1.10, written by Peter Selinger 2001-2011
</metadata>
<g transform="translate(0.000000,300.000000) scale(0.100000,-0.100000)"
fill="#000000" stroke="none">
<path d="M1601 2989 c-19 -4 -47 -21 -64 -37 -26 -26 -34 -50 -63 -179 -20
-85 -40 -153 -49 -159 -8 -6 -55 -17 -105 -24 -70 -10 -93 -10 -104 -1 -8 7
-43 60 -77 119 -73 126 -93 150 -136 168 -50 21 -82 17 -162 -21 -103 -49
-131 -72 -153 -122 -24 -56 -21 -74 48 -232 30 -68 54 -130 54 -137 0 -15
-140 -153 -156 -154 -5 0 -66 24 -135 54 -160 69 -177 72 -232 48 -50 -22 -73
-50 -122 -153 -38 -80 -42 -112 -21 -162 18 -43 42 -63 168 -136 59 -34 112
-69 119 -77 9 -11 9 -36 -2 -110 -10 -78 -17 -98 -33 -109 -12 -7 -82 -25
-156 -40 -126 -27 -138 -31 -172 -66 -37 -36 -38 -38 -38 -111 0 -147 22 -209
91 -257 31 -21 41 -22 109 -17 41 4 116 9 167 13 l91 6 46 -91 c25 -51 46 -96
46 -101 0 -5 -45 -60 -100 -122 -112 -126 -129 -160 -110 -227 16 -60 142
-186 202 -202 67 -19 101 -2 227 110 62 55 117 100 122 100 5 0 50 -20 99 -45
l90 -45 0 -42 c0 -23 -5 -93 -11 -155 -13 -131 -10 -150 32 -197 35 -41 68
-53 169 -64 105 -11 147 -2 185 40 27 29 35 52 60 168 15 74 34 144 41 156 10
16 30 23 108 33 74 11 99 11 110 2 8 -7 43 -60 77 -119 73 -126 93 -150 136
-168 50 -21 82 -17 162 21 103 49 131 72 153 122 24 56 21 74 -48 232 -30 68
-54 130 -54 137 0 15 140 153 156 154 5 0 66 -24 135 -54 160 -69 177 -72 232
-48 50 22 73 50 122 153 38 80 42 112 21 162 -18 43 -42 63 -168 136 -59 34
-112 69 -119 77 -9 11 -9 36 2 110 10 78 17 98 33 109 12 7 82 25 156 40 126
27 138 31 173 66 36 36 37 38 37 111 0 147 -22 209 -91 257 -31 21 -41 22
-109 17 -41 -4 -116 -9 -167 -13 l-91 -6 -46 91 c-25 51 -46 96 -46 101 0 5
45 60 100 122 151 169 154 212 26 342 -57 58 -85 79 -117 87 -68 19 -103 2
-229 -110 -62 -55 -117 -100 -122 -100 -4 0 -49 20 -98 45 l-90 45 0 42 c0 23
5 93 11 155 6 62 8 124 5 138 -9 36 -62 92 -99 104 -47 16 -187 28 -226 20z
m94 -29 c22 -11 47 -20 57 -20 10 0 18 -4 18 -9 0 -6 -12 -6 -32 0 -63 18
-115 11 -149 -19 -27 -24 -35 -44 -63 -162 -37 -153 -47 -177 -82 -190 -35
-14 -54 -12 -29 2 63 35 78 73 120 295 7 38 25 63 67 93 23 17 44 30 47 30 4
0 24 -9 46 -20z m155 -57 l32 -27 -7 -167 c-7 -165 -7 -167 16 -199 23 -30 79
-69 79 -54 0 4 8 0 18 -8 27 -25 79 -48 104 -48 26 1 64 28 167 120 85 76 106
89 143 90 45 0 75 -17 137 -80 42 -42 62 -72 67 -95 11 -62 0 -84 -108 -199
-32 -34 -68 -80 -80 -103 l-22 -41 35 -77 c34 -77 64 -117 109 -147 l25 -17
-35 10 c-42 11 -50 21 -101 121 -40 80 -48 123 -27 161 6 12 47 63 91 112 97
109 113 141 94 188 -15 35 -102 124 -143 145 -26 14 -65 10 -87 -8 -7 -5 -53
-45 -104 -89 -50 -44 -100 -84 -112 -90 -36 -20 -78 -11 -171 35 -122 62 -128
74 -112 222 19 170 17 188 -20 226 -18 18 -40 36 -48 39 -10 4 -8 6 7 6 12 1
36 -11 53 -26z m-120 -14 c101 -17 105 -24 91 -156 -25 -240 -18 -259 128
-334 159 -82 174 -79 336 65 59 53 116 96 125 96 23 0 150 -126 150 -149 0 -9
-45 -67 -99 -129 -55 -63 -105 -129 -111 -148 -16 -46 -7 -78 51 -189 75 -142
94 -149 332 -124 136 14 140 12 158 -107 11 -75 10 -87 -3 -100 -9 -9 -76 -29
-149 -46 -196 -43 -222 -64 -242 -189 -18 -115 -16 -189 8 -221 11 -14 75 -59
143 -99 67 -40 127 -78 133 -86 7 -7 8 -25 4 -40 -11 -46 -74 -151 -93 -158
-11 -3 -76 19 -158 55 -76 33 -149 60 -162 60 -43 0 -87 -27 -160 -99 -72 -70
-102 -118 -102 -162 0 -12 27 -86 61 -165 47 -112 58 -147 50 -162 -11 -21
-143 -92 -172 -92 -22 0 -32 13 -118 159 -95 161 -106 165 -320 132 -114 -18
-138 -50 -178 -235 -15 -71 -34 -137 -43 -149 -16 -19 -20 -19 -102 -7 -121
17 -124 20 -109 157 25 238 16 260 -119 329 -171 88 -180 86 -341 -56 -61 -55
-120 -100 -130 -100 -23 0 -149 127 -149 150 0 9 43 66 96 125 145 163 148
178 62 340 -75 143 -91 149 -331 124 -137 -14 -140 -12 -158 108 -12 83 -12
86 8 103 11 9 78 28 149 43 189 40 217 63 237 188 18 115 16 189 -8 221 -11
15 -69 55 -128 90 -138 80 -157 95 -157 120 0 29 70 157 92 169 15 8 49 -2
162 -50 79 -34 153 -61 165 -61 43 0 87 28 160 101 73 73 101 117 101 160 0
12 -27 86 -61 165 -48 113 -58 147 -50 162 12 23 140 92 169 92 25 0 34 -11
121 -159 95 -161 106 -165 320 -132 114 18 138 50 176 231 39 181 37 180 165
159z m-722 -64 c12 -9 49 -62 82 -119 87 -147 113 -172 178 -166 12 1 22 -4
22 -10 0 -13 -73 -5 -107 12 -12 6 -50 60 -85 120 -67 117 -113 168 -154 168
-33 0 -153 -61 -183 -94 -29 -31 -32 -74 -9 -126 114 -259 114 -264 8 -371
-58 -59 -92 -80 -127 -81 -25 -1 -120 35 -249 94 -55 24 -77 23 -115 -9 -34
-29 -99 -153 -99 -190 0 -28 53 -89 96 -111 18 -9 69 -39 112 -65 92 -55 109
-81 98 -155 -4 -26 -10 -63 -12 -82 -9 -60 -25 -99 -47 -115 -38 -27 -52 -17
-18 14 37 33 47 63 56 169 l7 77 -36 38 c-21 20 -43 37 -51 37 -7 0 -15 4 -17
8 -1 4 -34 25 -73 47 -133 74 -152 117 -97 232 40 84 59 109 93 123 39 16 65
10 207 -50 66 -27 131 -50 144 -50 13 0 41 16 63 35 22 19 44 35 48 35 5 0 5
6 1 13 -4 6 -4 9 0 5 9 -7 56 43 75 80 16 30 11 50 -50 194 -52 124 -59 164
-32 204 15 24 82 65 148 91 43 16 97 16 123 -2z m1880 -961 c21 -14 53 -64 52
-81 0 -25 15 -81 28 -100 13 -20 12 -27 -1 -56 -21 -43 -55 -74 -92 -83 l-30
-7 35 25 c55 38 65 67 51 161 -12 84 -24 106 -76 138 -25 16 -27 19 -10 19 11
0 31 -7 43 -16z m-193 -359 c-5 -2 -23 -6 -38 -9 -38 -9 -86 -57 -97 -97 -6
-19 -12 -67 -15 -109 -6 -70 -4 -77 19 -102 14 -15 38 -36 54 -45 17 -10 66
-39 110 -65 45 -26 88 -58 96 -70 22 -31 20 -87 -6 -144 -45 -103 -87 -145
-141 -143 -18 1 -17 2 7 9 16 5 40 19 54 32 29 27 92 153 92 185 0 29 -53 89
-99 112 -76 38 -179 106 -191 125 -7 11 -14 36 -15 55 -2 33 16 156 31 208 7
24 83 61 124 61 14 0 21 -1 15 -3z m-2576 -68 c-54 -36 -63 -65 -49 -159 9
-66 17 -86 41 -112 24 -26 38 -32 91 -37 l63 -6 -68 -1 c-63 -2 -71 0 -97 27
-16 16 -32 41 -35 57 -4 16 -15 55 -26 88 -16 51 -17 61 -5 85 16 29 53 65 76
74 36 13 40 5 9 -16z m364 -301 c26 -10 42 -31 80 -104 48 -93 57 -138 34
-178 -7 -12 -43 -56 -82 -99 -75 -82 -115 -140 -115 -166 0 -50 140 -189 191
-189 27 0 43 11 167 118 87 76 122 97 157 93 11 -1 62 -22 113 -47 125 -62
130 -70 114 -236 -17 -172 -17 -173 21 -214 31 -34 39 -37 119 -47 76 -9 89
-9 112 6 41 27 54 55 81 181 29 135 46 173 81 186 33 13 68 12 36 0 -55 -23
-73 -53 -102 -176 -16 -66 -27 -121 -25 -123 10 -9 -28 -62 -64 -91 l-40 -31
-58 19 c-32 11 -76 25 -99 31 -22 6 -51 22 -63 35 -27 28 -28 64 -12 240 l11
108 -28 34 c-30 39 -167 114 -207 114 -24 0 -110 -66 -195 -148 -76 -73 -131
-79 -213 -21 -26 18 -47 35 -47 38 0 3 -11 19 -25 35 -51 59 -42 133 23 202
72 76 131 150 142 179 10 25 6 39 -34 120 -47 97 -74 123 -136 136 l-35 7 33
1 c18 0 47 -5 65 -13z m1885 -307 c-22 -3 -50 -18 -69 -37 -18 -18 -37 -32
-41 -32 -5 0 -6 -6 -2 -12 4 -7 4 -10 -1 -6 -10 9 -73 -67 -81 -98 -6 -23 4
-56 45 -146 69 -152 74 -182 43 -233 -18 -29 -132 -96 -163 -94 -8 0 13 13 45
30 69 33 92 53 113 92 17 35 16 39 -55 202 -48 110 -53 136 -32 181 9 22 38
56 64 78 26 21 44 41 41 44 -13 13 91 52 115 43 9 -3 0 -8 -22 -12z m146 -39
c34 -15 63 -27 66 -28 22 -4 71 -31 58 -32 -17 0 -216 84 -227 97 -9 9 38 -8
103 -37z m-692 -334 c11 -8 47 -61 80 -118 69 -119 102 -157 149 -168 l34 -8
-33 -1 c-18 -1 -42 4 -53 10 -20 10 -90 113 -127 185 -41 79 -90 115 -151 109
-28 -3 -32 -2 -16 5 25 12 91 4 117 -14z"/>
<path d="M1308 2280 c-293 -72 -518 -300 -588 -594 -50 -208 -6 -463 110 -631
156 -227 398 -355 670 -355 218 0 392 69 553 220 244 228 318 606 178 914 -77
171 -233 325 -406 402 -147 65 -359 83 -517 44z m417 -55 c28 -9 69 -24 92
-35 24 -11 45 -20 48 -20 17 0 136 -95 189 -150 141 -150 215 -351 203 -552
-9 -147 -26 -208 -95 -341 -81 -155 -252 -295 -423 -347 -36 -11 -75 -20 -85
-19 -10 0 6 8 36 16 30 8 57 19 61 24 3 6 10 9 15 7 14 -4 94 33 94 44 0 5 4
7 8 4 14 -9 167 120 217 182 58 73 119 197 141 287 23 96 22 250 -1 348 -10
42 -22 77 -26 77 -5 0 -9 10 -9 23 0 38 -85 169 -156 242 -103 105 -218 175
-344 209 -30 8 -46 15 -35 15 11 1 43 -6 70 -14z m-525 -41 c-126 -60 -235
-149 -309 -255 -94 -132 -145 -309 -136 -465 5 -82 33 -214 45 -214 5 0 8 -8
7 -18 -2 -37 88 -174 169 -256 72 -72 200 -161 246 -170 7 -2 24 -7 38 -13 14
-6 32 -13 40 -16 12 -4 11 -6 -3 -6 -10 -1 -53 13 -95 31 -290 121 -475 413
-459 726 6 121 9 135 37 217 69 200 217 364 405 446 89 40 102 34 15 -7z m521
-17 c112 -38 195 -91 280 -177 52 -54 88 -101 116 -156 70 -136 78 -171 78
-334 0 -131 -3 -152 -27 -221 -40 -113 -92 -195 -178 -280 -54 -52 -101 -88
-156 -116 -136 -70 -171 -78 -334 -78 -131 0 -152 3 -221 27 -113 40 -195 92
-280 178 -52 54 -88 101 -116 156 -70 136 -78 171 -78 334 0 131 3 152 27 221
40 114 92 195 180 281 61 61 98 87 171 123 134 66 179 75 332 72 109 -3 142
-8 206 -30z"/>
</g>
</svg>
